<?xml version="1.0" encoding="UTF-8" standalone="no"?><svg xmlns="http://www.w3.org/2000/svg" xmlns:xlink="http://www.w3.org/1999/xlink" contentScriptType="application/ecmascript" contentStyleType="text/css" height="655px" preserveAspectRatio="none" style="width:1186px;height:655px;" version="1.1" viewBox="0 0 1186 655" width="1186px" zoomAndPan="magnify"><defs><filter height="300%" id="fj0cm0c" width="300%" x="-1" y="-1"><feGaussianBlur result="blurOut" stdDeviation="2.0"/><feColorMatrix in="blurOut" result="blurOut2" type="matrix" values="0 0 0 0 0 0 0 0 0 0 0 0 0 0 0 0 0 0 .4 0"/><feOffset dx="4.0" dy="4.0" in="blurOut2" result="blurOut3"/><feBlend in="SourceGraphic" in2="blurOut3" mode="normal"/></filter></defs><g><!--cluster connectors--><polygon fill="#DDDDDD" filter="url(#fj0cm0c)" points="22,293,106,293,113,315.29,681,315.29,681,648,22,648,22,293" style="stroke: #000000; stroke-width: 2.0;"/><line style="stroke: #000000; stroke-width: 2.0;" x1="22" x2="113" y1="315.29" y2="315.29"/><text fill="#000000" font-family="sans-serif" font-size="14" font-weight="bold" lengthAdjust="spacingAndGlyphs" textLength="78" x="26" y="308.3369">connectors</text><!--cluster transforms--><polygon fill="#DDDDDD" filter="url(#fj0cm0c)" points="705,293,791,293,798,315.29,1179,315.29,1179,648,705,648,705,293" style="stroke: #000000; stroke-width: 2.0;"/><line style="stroke: #000000; stroke-width: 2.0;" x1="705" x2="798" y1="315.29" y2="315.29"/><text fill="#000000" font-family="sans-serif" font-size="14" font-weight="bold" lengthAdjust="spacingAndGlyphs" textLength="80" x="709" y="308.3369">transforms</text><!--class connectors.Connector--><rect fill="#FEFECE" filter="url(#fj0cm0c)" height="73.5986" style="stroke: #A80036; stroke-width: 1.5;" width="162" x="376" y="443"/><ellipse cx="423.75" cy="459" fill="#ADD1B2" rx="11" ry="11" style="stroke: #A80036; stroke-width: 1.0;"/><path d="M427.5781,464.6563 Q425.7031,465.3125 423.8906,465.3125 Q421.2969,465.3125 419.7109,463.5313 Q418.125,461.75 418.125,458.8438 Q418.125,456.1563 419.5313,454.3906 Q420.3906,453.3125 421.5078,452.8594 Q422.625,452.4063 424.4063,452.4063 Q426.125,452.4063 427.5781,452.7656 L427.5781,454.75 Q425.7031,454.0469 424.4531,454.0469 Q422.7656,454.0469 421.7734,455.3672 Q420.7813,456.6875 420.7813,458.9219 Q420.7813,460.9688 421.8203,462.2656 Q422.8594,463.5625 424.5,463.5625 Q425.8906,463.5625 427.5781,462.7813 L427.5781,464.6563 Z "/><text fill="#000000" font-family="sans-serif" font-size="12" lengthAdjust="spacingAndGlyphs" textLength="58" x="444.25" y="463.4209">Connector</text><line style="stroke: #A80036; stroke-width: 1.5;" x1="377" x2="537" y1="475" y2="475"/><text fill="#000000" font-family="sans-serif" font-size="11" lengthAdjust="spacingAndGlyphs" textLength="64" x="382" y="489.4521">String name</text><line style="stroke: #A80036; stroke-width: 1.5;" x1="377" x2="537" y1="495.7993" y2="495.7993"/><text fill="#000000" font-family="sans-serif" font-size="11" lengthAdjust="spacingAndGlyphs" textLength="150" x="382" y="510.2515">DataView parse(Any source)</text><!--class connectors.Connectors--><rect fill="#FEFECE" filter="url(#fj0cm0c)" height="48" style="stroke: #A80036; stroke-width: 1.5;" width="96" x="418" y="328"/><ellipse cx="433" cy="344" fill="#ADD1B2" rx="11" ry="11" style="stroke: #A80036; stroke-width: 1.0;"/><path d="M436.8281,349.6563 Q434.9531,350.3125 433.1406,350.3125 Q430.5469,350.3125 428.9609,348.5313 Q427.375,346.75 427.375,343.8438 Q427.375,341.1563 428.7813,339.3906 Q429.6406,338.3125 430.7578,337.8594 Q431.875,337.4063 433.6563,337.4063 Q435.375,337.4063 436.8281,337.7656 L436.8281,339.75 Q434.9531,339.0469 433.7031,339.0469 Q432.0156,339.0469 431.0234,340.3672 Q430.0313,341.6875 430.0313,343.9219 Q430.0313,345.9688 431.0703,347.2656 Q432.1094,348.5625 433.75,348.5625 Q435.1406,348.5625 436.8281,347.7813 L436.8281,349.6563 Z "/><text fill="#000000" font-family="sans-serif" font-size="12" lengthAdjust="spacingAndGlyphs" textLength="64" x="447" y="348.4209">Connectors</text><line style="stroke: #A80036; stroke-width: 1.5;" x1="419" x2="513" y1="360" y2="360"/><line style="stroke: #A80036; stroke-width: 1.5;" x1="419" x2="513" y1="368" y2="368"/><!--class connectors.defaultConnector--><rect fill="#FEFECE" filter="url(#fj0cm0c)" height="48" style="stroke: #A80036; stroke-width: 1.5;" width="130" x="392" y="584"/><ellipse cx="407" cy="600" fill="#ADD1B2" rx="11" ry="11" style="stroke: #A80036; stroke-width: 1.0;"/><path d="M410.8281,605.6563 Q408.9531,606.3125 407.1406,606.3125 Q404.5469,606.3125 402.9609,604.5313 Q401.375,602.75 401.375,599.8438 Q401.375,597.1563 402.7813,595.3906 Q403.6406,594.3125 404.7578,593.8594 Q405.875,593.4063 407.6563,593.4063 Q409.375,593.4063 410.8281,593.7656 L410.8281,595.75 Q408.9531,595.0469 407.7031,595.0469 Q406.0156,595.0469 405.0234,596.3672 Q404.0313,597.6875 404.0313,599.9219 Q404.0313,601.9688 405.0703,603.2656 Q406.1094,604.5625 407.75,604.5625 Q409.1406,604.5625 410.8281,603.7813 L410.8281,605.6563 Z "/><text fill="#000000" font-family="sans-serif" font-size="12" lengthAdjust="spacingAndGlyphs" textLength="98" x="421" y="604.4209">defaultConnector</text><line style="stroke: #A80036; stroke-width: 1.5;" x1="393" x2="521" y1="616" y2="616"/><line style="stroke: #A80036; stroke-width: 1.5;" x1="393" x2="521" y1="624" y2="624"/><!--class connectors.csvConnector--><rect fill="#FEFECE" filter="url(#fj0cm0c)" height="48" style="stroke: #A80036; stroke-width: 1.5;" width="108" x="557" y="584"/><ellipse cx="572" cy="600" fill="#ADD1B2" rx="11" ry="11" style="stroke: #A80036; stroke-width: 1.0;"/><path d="M575.8281,605.6563 Q573.9531,606.3125 572.1406,606.3125 Q569.5469,606.3125 567.9609,604.5313 Q566.375,602.75 566.375,599.8438 Q566.375,597.1563 567.7813,595.3906 Q568.6406,594.3125 569.7578,593.8594 Q570.875,593.4063 572.6563,593.4063 Q574.375,593.4063 575.8281,593.7656 L575.8281,595.75 Q573.9531,595.0469 572.7031,595.0469 Q571.0156,595.0469 570.0234,596.3672 Q569.0313,597.6875 569.0313,599.9219 Q569.0313,601.9688 570.0703,603.2656 Q571.1094,604.5625 572.75,604.5625 Q574.1406,604.5625 575.8281,603.7813 L575.8281,605.6563 Z "/><text fill="#000000" font-family="sans-serif" font-size="12" lengthAdjust="spacingAndGlyphs" textLength="76" x="586" y="604.4209">csvConnector</text><line style="stroke: #A80036; stroke-width: 1.5;" x1="558" x2="664" y1="616" y2="616"/><line style="stroke: #A80036; stroke-width: 1.5;" x1="558" x2="664" y1="624" y2="624"/><!--class connectors.geoJSONConnector--><rect fill="#FEFECE" filter="url(#fj0cm0c)" height="48" style="stroke: #A80036; stroke-width: 1.5;" width="139" x="38.5" y="584"/><ellipse cx="53.5" cy="600" fill="#ADD1B2" rx="11" ry="11" style="stroke: #A80036; stroke-width: 1.0;"/><path d="M57.3281,605.6563 Q55.4531,606.3125 53.6406,606.3125 Q51.0469,606.3125 49.4609,604.5313 Q47.875,602.75 47.875,599.8438 Q47.875,597.1563 49.2813,595.3906 Q50.1406,594.3125 51.2578,593.8594 Q52.375,593.4063 54.1563,593.4063 Q55.875,593.4063 57.3281,593.7656 L57.3281,595.75 Q55.4531,595.0469 54.2031,595.0469 Q52.5156,595.0469 51.5234,596.3672 Q50.5313,597.6875 50.5313,599.9219 Q50.5313,601.9688 51.5703,603.2656 Q52.6094,604.5625 54.25,604.5625 Q55.6406,604.5625 57.3281,603.7813 L57.3281,605.6563 Z "/><text fill="#000000" font-family="sans-serif" font-size="12" lengthAdjust="spacingAndGlyphs" textLength="107" x="67.5" y="604.4209">geoJSONConnector</text><line style="stroke: #A80036; stroke-width: 1.5;" x1="39.5" x2="176.5" y1="616" y2="616"/><line style="stroke: #A80036; stroke-width: 1.5;" x1="39.5" x2="176.5" y1="624" y2="624"/><!--class connectors.topoJSONConnector--><rect fill="#FEFECE" filter="url(#fj0cm0c)" height="48" style="stroke: #A80036; stroke-width: 1.5;" width="144" x="213" y="584"/><ellipse cx="228" cy="600" fill="#ADD1B2" rx="11" ry="11" style="stroke: #A80036; stroke-width: 1.0;"/><path d="M231.8281,605.6563 Q229.9531,606.3125 228.1406,606.3125 Q225.5469,606.3125 223.9609,604.5313 Q222.375,602.75 222.375,599.8438 Q222.375,597.1563 223.7813,595.3906 Q224.6406,594.3125 225.7578,593.8594 Q226.875,593.4063 228.6563,593.4063 Q230.375,593.4063 231.8281,593.7656 L231.8281,595.75 Q229.9531,595.0469 228.7031,595.0469 Q227.0156,595.0469 226.0234,596.3672 Q225.0313,597.6875 225.0313,599.9219 Q225.0313,601.9688 226.0703,603.2656 Q227.1094,604.5625 228.75,604.5625 Q230.1406,604.5625 231.8281,603.7813 L231.8281,605.6563 Z "/><text fill="#000000" font-family="sans-serif" font-size="12" lengthAdjust="spacingAndGlyphs" textLength="112" x="242" y="604.4209">topoJSONConnector</text><line style="stroke: #A80036; stroke-width: 1.5;" x1="214" x2="356" y1="616" y2="616"/><line style="stroke: #A80036; stroke-width: 1.5;" x1="214" x2="356" y1="624" y2="624"/><!--class transforms.Transform--><rect fill="#FEFECE" filter="url(#fj0cm0c)" height="86.3979" style="stroke: #A80036; stroke-width: 1.5;" width="197" x="837.5" y="437"/><ellipse cx="901.75" cy="453" fill="#ADD1B2" rx="11" ry="11" style="stroke: #A80036; stroke-width: 1.0;"/><path d="M905.5781,458.6563 Q903.7031,459.3125 901.8906,459.3125 Q899.2969,459.3125 897.7109,457.5313 Q896.125,455.75 896.125,452.8438 Q896.125,450.1563 897.5313,448.3906 Q898.3906,447.3125 899.5078,446.8594 Q900.625,446.4063 902.4063,446.4063 Q904.125,446.4063 905.5781,446.7656 L905.5781,448.75 Q903.7031,448.0469 902.4531,448.0469 Q900.7656,448.0469 899.7734,449.3672 Q898.7813,450.6875 898.7813,452.9219 Q898.7813,454.9688 899.8203,456.2656 Q900.8594,457.5625 902.5,457.5625 Q903.8906,457.5625 905.5781,456.7813 L905.5781,458.6563 Z "/><text fill="#000000" font-family="sans-serif" font-size="12" lengthAdjust="spacingAndGlyphs" textLength="60" x="922.25" y="457.4209">Transform</text><line style="stroke: #A80036; stroke-width: 1.5;" x1="838.5" x2="1033.5" y1="469" y2="469"/><text fill="#000000" font-family="sans-serif" font-size="11" lengthAdjust="spacingAndGlyphs" textLength="64" x="843.5" y="483.4521">String name</text><text fill="#000000" font-family="sans-serif" font-size="11" lengthAdjust="spacingAndGlyphs" textLength="73" x="843.5" y="496.2515">Object option</text><line style="stroke: #A80036; stroke-width: 1.5;" x1="838.5" x2="1033.5" y1="502.5986" y2="502.5986"/><text fill="#000000" font-family="sans-serif" font-size="11" lengthAdjust="spacingAndGlyphs" textLength="185" x="843.5" y="517.0508">DataView callback(DataView origin)</text><!--class transforms.Transforms--><rect fill="#FEFECE" filter="url(#fj0cm0c)" height="48" style="stroke: #A80036; stroke-width: 1.5;" width="98" x="811" y="328"/><ellipse cx="826" cy="344" fill="#ADD1B2" rx="11" ry="11" style="stroke: #A80036; stroke-width: 1.0;"/><path d="M829.8281,349.6563 Q827.9531,350.3125 826.1406,350.3125 Q823.5469,350.3125 821.9609,348.5313 Q820.375,346.75 820.375,343.8438 Q820.375,341.1563 821.7813,339.3906 Q822.6406,338.3125 823.7578,337.8594 Q824.875,337.4063 826.6563,337.4063 Q828.375,337.4063 829.8281,337.7656 L829.8281,339.75 Q827.9531,339.0469 826.7031,339.0469 Q825.0156,339.0469 824.0234,340.3672 Q823.0313,341.6875 823.0313,343.9219 Q823.0313,345.9688 824.0703,347.2656 Q825.1094,348.5625 826.75,348.5625 Q828.1406,348.5625 829.8281,347.7813 L829.8281,349.6563 Z "/><text fill="#000000" font-family="sans-serif" font-size="12" lengthAdjust="spacingAndGlyphs" textLength="66" x="840" y="348.4209">Transforms</text><line style="stroke: #A80036; stroke-width: 1.5;" x1="812" x2="908" y1="360" y2="360"/><line style="stroke: #A80036; stroke-width: 1.5;" x1="812" x2="908" y1="368" y2="368"/><!--class transforms.StaticTransform--><rect fill="#FEFECE" filter="url(#fj0cm0c)" height="48" style="stroke: #A80036; stroke-width: 1.5;" width="122" x="892" y="584"/><ellipse cx="907" cy="600" fill="#ADD1B2" rx="11" ry="11" style="stroke: #A80036; stroke-width: 1.0;"/><path d="M910.8281,605.6563 Q908.9531,606.3125 907.1406,606.3125 Q904.5469,606.3125 902.9609,604.5313 Q901.375,602.75 901.375,599.8438 Q901.375,597.1563 902.7813,595.3906 Q903.6406,594.3125 904.7578,593.8594 Q905.875,593.4063 907.6563,593.4063 Q909.375,593.4063 910.8281,593.7656 L910.8281,595.75 Q908.9531,595.0469 907.7031,595.0469 Q906.0156,595.0469 905.0234,596.3672 Q904.0313,597.6875 904.0313,599.9219 Q904.0313,601.9688 905.0703,603.2656 Q906.1094,604.5625 907.75,604.5625 Q909.1406,604.5625 910.8281,603.7813 L910.8281,605.6563 Z "/><text fill="#000000" font-family="sans-serif" font-size="12" lengthAdjust="spacingAndGlyphs" textLength="90" x="921" y="604.4209">StaticTransform</text><line style="stroke: #A80036; stroke-width: 1.5;" x1="893" x2="1013" y1="616" y2="616"/><line style="stroke: #A80036; stroke-width: 1.5;" x1="893" x2="1013" y1="624" y2="624"/><!--class transforms.StatTransform--><rect fill="#FEFECE" filter="url(#fj0cm0c)" height="48" style="stroke: #A80036; stroke-width: 1.5;" width="113" x="1049.5" y="584"/><ellipse cx="1064.5" cy="600" fill="#ADD1B2" rx="11" ry="11" style="stroke: #A80036; stroke-width: 1.0;"/><path d="M1068.3281,605.6563 Q1066.4531,606.3125 1064.6406,606.3125 Q1062.0469,606.3125 1060.4609,604.5313 Q1058.875,602.75 1058.875,599.8438 Q1058.875,597.1563 1060.2813,595.3906 Q1061.1406,594.3125 1062.2578,593.8594 Q1063.375,593.4063 1065.1563,593.4063 Q1066.875,593.4063 1068.3281,593.7656 L1068.3281,595.75 Q1066.4531,595.0469 1065.2031,595.0469 Q1063.5156,595.0469 1062.5234,596.3672 Q1061.5313,597.6875 1061.5313,599.9219 Q1061.5313,601.9688 1062.5703,603.2656 Q1063.6094,604.5625 1065.25,604.5625 Q1066.6406,604.5625 1068.3281,603.7813 L1068.3281,605.6563 Z "/><text fill="#000000" font-family="sans-serif" font-size="12" lengthAdjust="spacingAndGlyphs" textLength="81" x="1078.5" y="604.4209">StatTransform</text><line style="stroke: #A80036; stroke-width: 1.5;" x1="1050.5" x2="1161.5" y1="616" y2="616"/><line style="stroke: #A80036; stroke-width: 1.5;" x1="1050.5" x2="1161.5" y1="624" y2="624"/><!--class transforms.ConvertTransform--><rect fill="#FEFECE" filter="url(#fj0cm0c)" height="48" style="stroke: #A80036; stroke-width: 1.5;" width="136" x="721" y="584"/><ellipse cx="736" cy="600" fill="#ADD1B2" rx="11" ry="11" style="stroke: #A80036; stroke-width: 1.0;"/><path d="M739.8281,605.6563 Q737.9531,606.3125 736.1406,606.3125 Q733.5469,606.3125 731.9609,604.5313 Q730.375,602.75 730.375,599.8438 Q730.375,597.1563 731.7813,595.3906 Q732.6406,594.3125 733.7578,593.8594 Q734.875,593.4063 736.6563,593.4063 Q738.375,593.4063 739.8281,593.7656 L739.8281,595.75 Q737.9531,595.0469 736.7031,595.0469 Q735.0156,595.0469 734.0234,596.3672 Q733.0313,597.6875 733.0313,599.9219 Q733.0313,601.9688 734.0703,603.2656 Q735.1094,604.5625 736.75,604.5625 Q738.1406,604.5625 739.8281,603.7813 L739.8281,605.6563 Z "/><text fill="#000000" font-family="sans-serif" font-size="12" lengthAdjust="spacingAndGlyphs" textLength="104" x="750" y="604.4209">ConvertTransform</text><line style="stroke: #A80036; stroke-width: 1.5;" x1="722" x2="856" y1="616" y2="616"/><line style="stroke: #A80036; stroke-width: 1.5;" x1="722" x2="856" y1="624" y2="624"/><!--class EventEmitter--><rect fill="#FEFECE" filter="url(#fj0cm0c)" height="124.7959" style="stroke: #A80036; stroke-width: 1.5;" width="104" x="123" y="76.5"/><ellipse cx="138" cy="92.5" fill="#ADD1B2" rx="11" ry="11" style="stroke: #A80036; stroke-width: 1.0;"/><path d="M141.8281,98.1563 Q139.9531,98.8125 138.1406,98.8125 Q135.5469,98.8125 133.9609,97.0313 Q132.375,95.25 132.375,92.3438 Q132.375,89.6563 133.7813,87.8906 Q134.6406,86.8125 135.7578,86.3594 Q136.875,85.9063 138.6563,85.9063 Q140.375,85.9063 141.8281,86.2656 L141.8281,88.25 Q139.9531,87.5469 138.7031,87.5469 Q137.0156,87.5469 136.0234,88.8672 Q135.0313,90.1875 135.0313,92.4219 Q135.0313,94.4688 136.0703,95.7656 Q137.1094,97.0625 138.75,97.0625 Q140.1406,97.0625 141.8281,96.2813 L141.8281,98.1563 Z "/><text fill="#000000" font-family="sans-serif" font-size="12" lengthAdjust="spacingAndGlyphs" textLength="72" x="152" y="96.9209">EventEmitter</text><line style="stroke: #A80036; stroke-width: 1.5;" x1="124" x2="226" y1="108.5" y2="108.5"/><text fill="#000000" font-family="sans-serif" font-size="11" lengthAdjust="spacingAndGlyphs" textLength="79" x="129" y="122.9521">Object _events</text><line style="stroke: #A80036; stroke-width: 1.5;" x1="124" x2="226" y1="129.2993" y2="129.2993"/><text fill="#000000" font-family="sans-serif" font-size="11" lengthAdjust="spacingAndGlyphs" textLength="48" x="129" y="143.7515">void on()</text><text fill="#000000" font-family="sans-serif" font-size="11" lengthAdjust="spacingAndGlyphs" textLength="49" x="129" y="156.5508">void off()</text><text fill="#000000" font-family="sans-serif" font-size="11" lengthAdjust="spacingAndGlyphs" textLength="60" x="129" y="169.3501">void once()</text><text fill="#000000" font-family="sans-serif" font-size="11" lengthAdjust="spacingAndGlyphs" textLength="71" x="129" y="182.1494">void trigger()</text><text fill="#000000" font-family="sans-serif" font-size="11" lengthAdjust="spacingAndGlyphs" textLength="57" x="129" y="194.9487">void emit()</text><!--class DataSet--><rect fill="#FEFECE" filter="url(#fj0cm0c)" height="175.9932" style="stroke: #A80036; stroke-width: 1.5;" width="339" x="296.5" y="51"/><ellipse cx="439.75" cy="67" fill="#ADD1B2" rx="11" ry="11" style="stroke: #A80036; stroke-width: 1.0;"/><path d="M443.5781,72.6563 Q441.7031,73.3125 439.8906,73.3125 Q437.2969,73.3125 435.7109,71.5313 Q434.125,69.75 434.125,66.8438 Q434.125,64.1563 435.5313,62.3906 Q436.3906,61.3125 437.5078,60.8594 Q438.625,60.4063 440.4063,60.4063 Q442.125,60.4063 443.5781,60.7656 L443.5781,62.75 Q441.7031,62.0469 440.4531,62.0469 Q438.7656,62.0469 437.7734,63.3672 Q436.7813,64.6875 436.7813,66.9219 Q436.7813,68.9688 437.8203,70.2656 Q438.8594,71.5625 440.5,71.5625 Q441.8906,71.5625 443.5781,70.7813 L443.5781,72.6563 Z "/><text fill="#000000" font-family="sans-serif" font-size="12" lengthAdjust="spacingAndGlyphs" textLength="44" x="460.25" y="71.4209">DataSet</text><line style="stroke: #A80036; stroke-width: 1.5;" x1="297.5" x2="634.5" y1="83" y2="83"/><text fill="#000000" font-family="sans-serif" font-size="11" lengthAdjust="spacingAndGlyphs" textLength="101" x="302.5" y="97.4521">Object Transforms</text><text fill="#000000" font-family="sans-serif" font-size="11" lengthAdjust="spacingAndGlyphs" textLength="101" x="302.5" y="110.2515">Object Connectors</text><text fill="#000000" font-family="sans-serif" font-size="11" lengthAdjust="spacingAndGlyphs" textLength="85" x="302.5" y="123.0508">Object dataView</text><text fill="#000000" font-family="sans-serif" font-size="11" lengthAdjust="spacingAndGlyphs" textLength="64" x="302.5" y="135.8501">Object state</text><line style="stroke: #A80036; stroke-width: 1.5;" x1="297.5" x2="634.5" y1="142.1973" y2="142.1973"/><text fill="#000000" font-family="sans-serif" font-size="11" lengthAdjust="spacingAndGlyphs" textLength="180" x="302.5" y="156.6494">DataView createView(String name)</text><text fill="#000000" font-family="sans-serif" font-size="11" lengthAdjust="spacingAndGlyphs" textLength="164" x="302.5" y="169.4487">DataView getView(String name)</text><text fill="#000000" font-family="sans-serif" font-size="11" lengthAdjust="spacingAndGlyphs" textLength="327" x="302.5" y="182.248">void registerConnector(String name, Connector constructor)</text><text fill="#000000" font-family="sans-serif" font-size="11" lengthAdjust="spacingAndGlyphs" textLength="327" x="302.5" y="195.0474">void registerTransform(String name, Transform constructor)</text><text fill="#000000" font-family="sans-serif" font-size="11" lengthAdjust="spacingAndGlyphs" textLength="198" x="302.5" y="207.8467">void setState(String name, Any value)</text><text fill="#000000" font-family="sans-serif" font-size="11" lengthAdjust="spacingAndGlyphs" textLength="242" x="302.5" y="220.646">void setView(String name, DataView dataView)</text><!--class DataView--><rect fill="#FEFECE" filter="url(#fj0cm0c)" height="214.3911" style="stroke: #A80036; stroke-width: 1.5;" width="268" x="726" y="32"/><ellipse cx="828.75" cy="48" fill="#ADD1B2" rx="11" ry="11" style="stroke: #A80036; stroke-width: 1.0;"/><path d="M832.5781,53.6563 Q830.7031,54.3125 828.8906,54.3125 Q826.2969,54.3125 824.7109,52.5313 Q823.125,50.75 823.125,47.8438 Q823.125,45.1563 824.5313,43.3906 Q825.3906,42.3125 826.5078,41.8594 Q827.625,41.4063 829.4063,41.4063 Q831.125,41.4063 832.5781,41.7656 L832.5781,43.75 Q830.7031,43.0469 829.4531,43.0469 Q827.7656,43.0469 826.7734,44.3672 Q825.7813,45.6875 825.7813,47.9219 Q825.7813,49.9688 826.8203,51.2656 Q827.8594,52.5625 829.5,52.5625 Q830.8906,52.5625 832.5781,51.7813 L832.5781,53.6563 Z "/><text fill="#000000" font-family="sans-serif" font-size="12" lengthAdjust="spacingAndGlyphs" textLength="54" x="849.25" y="52.4209">DataView</text><line style="stroke: #A80036; stroke-width: 1.5;" x1="727" x2="993" y1="64" y2="64"/><text fill="#000000" font-family="sans-serif" font-size="11" lengthAdjust="spacingAndGlyphs" textLength="65" x="732" y="78.4521">Array _rows</text><text fill="#000000" font-family="sans-serif" font-size="11" lengthAdjust="spacingAndGlyphs" textLength="99" x="732" y="91.2515">Array _transforms</text><text fill="#000000" font-family="sans-serif" font-size="11" lengthAdjust="spacingAndGlyphs" textLength="129" x="732" y="104.0508">Array | DataView _origin</text><text fill="#000000" font-family="sans-serif" font-size="11" lengthAdjust="spacingAndGlyphs" textLength="102" x="732" y="116.8501">Boolean isDataView</text><text fill="#000000" font-family="sans-serif" font-size="11" lengthAdjust="spacingAndGlyphs" textLength="88" x="732" y="129.6494">DataSet _dataSet</text><text fill="#000000" font-family="sans-serif" font-size="11" lengthAdjust="spacingAndGlyphs" textLength="64" x="732" y="142.4487">String name</text><line style="stroke: #A80036; stroke-width: 1.5;" x1="727" x2="993" y1="148.7959" y2="148.7959"/><text fill="#000000" font-family="sans-serif" font-size="11" lengthAdjust="spacingAndGlyphs" textLength="159" x="732" y="163.248">Array findRows(Object query)</text><text fill="#000000" font-family="sans-serif" font-size="11" lengthAdjust="spacingAndGlyphs" textLength="158" x="732" y="176.0474">Object findRow(Object query)</text><text fill="#000000" font-family="sans-serif" font-size="11" lengthAdjust="spacingAndGlyphs" textLength="184" x="732" y="188.8467">Object removeRow(Number index)</text><text fill="#000000" font-family="sans-serif" font-size="11" lengthAdjust="spacingAndGlyphs" textLength="134" x="732" y="201.646">void addRow(Object row)</text><text fill="#000000" font-family="sans-serif" font-size="11" lengthAdjust="spacingAndGlyphs" textLength="76" x="732" y="214.4453">void execute()</text><text fill="#000000" font-family="sans-serif" font-size="11" lengthAdjust="spacingAndGlyphs" textLength="217" x="732" y="227.2446">void source(Any source, Object options)</text><text fill="#000000" font-family="sans-serif" font-size="11" lengthAdjust="spacingAndGlyphs" textLength="256" x="732" y="240.0439">void updateRow(Number index, Object newRow)</text><path d="M464.349,376.11 C463.02,394.724 461.126,421.23 459.594,442.677 " fill="none" style="stroke: #A80036; stroke-width: 1.0; stroke-dasharray: 7.0,7.0;"/><path d="M457,517.107 C457,538.632 457,565.3134 457,583.995 " fill="none" style="stroke: #A80036; stroke-width: 1.0; stroke-dasharray: 7.0,7.0;"/><path d="M501.13,517.107 C527.439,538.632 560.05,565.3134 582.883,583.995 " fill="none" style="stroke: #A80036; stroke-width: 1.0; stroke-dasharray: 7.0,7.0;"/><path d="M375.615,510.382 C313.478,532.816 229.062,563.293 171.774,583.9754 " fill="none" style="stroke: #A80036; stroke-width: 1.0; stroke-dasharray: 7.0,7.0;"/><path d="M407.712,517.107 C378.328,538.632 341.906,565.3134 316.404,583.995 " fill="none" style="stroke: #A80036; stroke-width: 1.0; stroke-dasharray: 7.0,7.0;"/><path d="M873.94,376.11 C884.181,393.09 898.384,416.637 910.619,436.921 " fill="none" style="stroke: #A80036; stroke-width: 1.0; stroke-dasharray: 7.0,7.0;"/><path d="M944.411,543.343 C946.357,557.76 948.308,572.2234 949.858,583.7118 " fill="none" style="stroke: #A80036; stroke-width: 1.0;"/><polygon fill="none" points="937.445,544.063,941.708,523.307,951.319,542.191,937.445,544.063" style="stroke: #A80036; stroke-width: 1.0;"/><path d="M1009.41,535.412 C1032.25,552.34 1056.23,570.1105 1074.58,583.7118 " fill="none" style="stroke: #A80036; stroke-width: 1.0;"/><polygon fill="none" points="1004.98,540.84,993.08,523.307,1013.32,529.592,1004.98,540.84" style="stroke: #A80036; stroke-width: 1.0;"/><path d="M871.368,536.399 C851.967,553.028 831.73,570.3746 816.17,583.7118 " fill="none" style="stroke: #A80036; stroke-width: 1.0;"/><polygon fill="none" points="866.901,531.008,886.642,523.307,876.013,541.637,866.901,531.008" style="stroke: #A80036; stroke-width: 1.0;"/><path d="M247.244,139 C263.526,139 279.808,139 296.089,139 " fill="none" style="stroke: #A80036; stroke-width: 1.0;"/><polygon fill="none" points="247.005,146,227.005,139,247.005,132,247.005,146" style="stroke: #A80036; stroke-width: 1.0;"/><path d="M232.178,61.361 C250.366,42.924 272.166,26.002 296.5,17 C331.827,3.932 598.994,7.722 635.5,17 C666.132,24.785 697.103,37.688 725.852,52.255 " fill="none" style="stroke: #A80036; stroke-width: 1.0;"/><polygon fill="none" points="237.081,66.371,218.388,76.349,226.778,56.892,237.081,66.371" style="stroke: #A80036; stroke-width: 1.0;"/><path d="M648.768,139 C674.696,139 700.954,139 725.733,139 " fill="none" style="stroke: #A80036; stroke-width: 1.0;"/><polygon fill="#A80036" points="635.664,139,641.664,143,647.664,139,641.664,135,635.664,139" style="stroke: #A80036; stroke-width: 1.0;"/><text fill="#000000" font-family="sans-serif" font-size="13" lengthAdjust="spacingAndGlyphs" textLength="54" x="653.75" y="132.3525">contains</text><text fill="#000000" font-family="sans-serif" font-size="13" lengthAdjust="spacingAndGlyphs" textLength="8" x="643.5332" y="136.0157">1</text><text fill="#000000" font-family="sans-serif" font-size="13" lengthAdjust="spacingAndGlyphs" textLength="34" x="683.9333" y="151.7324">many</text><path d="M466,240.421 C466,272.962 466,306.148 466,327.559 " fill="none" style="stroke: #A80036; stroke-width: 1.0;"/><polygon fill="#A80036" points="466,227.04,462,233.04,466,239.04,470,233.04,466,227.04" style="stroke: #A80036; stroke-width: 1.0;"/><text fill="#000000" font-family="sans-serif" font-size="13" lengthAdjust="spacingAndGlyphs" textLength="8" x="457.6688" y="247.31">1</text><text fill="#000000" font-family="sans-serif" font-size="13" lengthAdjust="spacingAndGlyphs" textLength="8" x="457.025" y="317.1413">1</text><path d="M640.213,233.297 C705.311,268.159 773.774,304.823 816.652,327.786 " fill="none" style="stroke: #A80036; stroke-width: 1.0;"/><polygon fill="#A80036" points="628.53,227.04,631.9309,233.3988,639.1086,232.7051,635.7077,226.3464,628.53,227.04" style="stroke: #A80036; stroke-width: 1.0;"/><text fill="#000000" font-family="sans-serif" font-size="13" lengthAdjust="spacingAndGlyphs" textLength="8" x="633.6583" y="247.31">1</text><text fill="#000000" font-family="sans-serif" font-size="13" lengthAdjust="spacingAndGlyphs" textLength="8" x="797.1109" y="317.4237">1</text><path d="M725.785,211.877 C650.185,252.363 560.809,300.227 509.042,327.95 " fill="none" style="stroke: #A80036; stroke-width: 1.0; stroke-dasharray: 7.0,7.0;"/><path d="M860,246.118 C860,276.905 860,307.622 860,327.781 " fill="none" style="stroke: #A80036; stroke-width: 1.0; stroke-dasharray: 7.0,7.0;"/></g></svg>